<?xml version="1.0" encoding="UTF-8" standalone="no"?>
<!-- Created with Inkscape (http://www.inkscape.org/) -->

<svg
   width="32"
   height="31.999998"
   viewBox="0 0 8.4666664 8.4666661"
   version="1.1"
   id="svg5"
   inkscape:version="1.2.2 (732a01da63, 2022-12-09)"
   sodipodi:docname="selector_reactive.svg"
   inkscape:export-filename="..\selector.svg"
   inkscape:export-xdpi="96"
   inkscape:export-ydpi="96"
   xmlns:inkscape="http://www.inkscape.org/namespaces/inkscape"
   xmlns:sodipodi="http://sodipodi.sourceforge.net/DTD/sodipodi-0.dtd"
   xmlns="http://www.w3.org/2000/svg"
   xmlns:svg="http://www.w3.org/2000/svg">
  <sodipodi:namedview
     id="namedview7"
     pagecolor="#ffffff"
     bordercolor="#000000"
     borderopacity="0.25"
     inkscape:showpageshadow="2"
     inkscape:pageopacity="0.0"
     inkscape:pagecheckerboard="0"
     inkscape:deskcolor="#d1d1d1"
     inkscape:document-units="mm"
     showgrid="false"
     inkscape:zoom="9.5144354"
     inkscape:cx="41.936277"
     inkscape:cy="15.187449"
     inkscape:window-width="1680"
     inkscape:window-height="988"
     inkscape:window-x="-8"
     inkscape:window-y="-8"
     inkscape:window-maximized="1"
     inkscape:current-layer="layer1"
     showguides="true" />
  <defs
     id="defs2" />
  <g
     inkscape:label="Layer 1"
     inkscape:groupmode="layer"
     id="layer1">
    <g
       aria-label="||"
       id="text236"
       style="font-size:2.84615px;-inkscape-font-specification:'sans-serif, Normal';fill:#af9dd9;stroke:#af9dd9;stroke-width:0.39;stroke-linecap:round;stroke-linejoin:round"
       transform="matrix(1.7691466,0,0,1.7690057,0.99181563,1.2949626)">
      <g
         id="path3207">
        <path
           style="color:#000000;-inkscape-font-specification:'sans-serif, Normal';stroke:none;stroke-linecap:butt;stroke-linejoin:miter;-inkscape-stroke:none"
           d="M 1.2286671,0.69216855 H 1.436436 V 3.5411646 H 1.2286671 Z"
           id="path3214" />
        <path
           style="color:#000000;-inkscape-font-specification:'sans-serif, Normal';stroke:none;stroke-linecap:butt;stroke-linejoin:miter;-inkscape-stroke:none"
           d="M 1.2285156,0.49804688 A 0.19501949,0.19501949 0 0 0 1.0332031,0.69140625 V 3.5410156 A 0.19501949,0.19501949 0 0 0 1.2285156,3.7363281 H 1.4355469 A 0.19501949,0.19501949 0 0 0 1.6308594,3.5410156 V 0.69140625 A 0.19501949,0.19501949 0 0 0 1.4355469,0.49804688 Z"
           id="path3216" />
      </g>
      <g
         id="path3209">
        <path
           style="color:#000000;-inkscape-font-specification:'sans-serif, Normal';stroke:none;stroke-linecap:butt;stroke-linejoin:miter;-inkscape-stroke:none"
           d="m 2.7968973,0.69216855 h 0.207769 V 3.5411646 h -0.207769 z"
           id="path3220" />
        <path
           style="color:#000000;-inkscape-font-specification:'sans-serif, Normal';stroke:none;stroke-linecap:butt;stroke-linejoin:miter;-inkscape-stroke:none"
           d="M 2.796875,0.49804688 A 0.19501949,0.19501949 0 0 0 2.6015625,0.69140625 V 3.5410156 A 0.19501949,0.19501949 0 0 0 2.796875,3.7363281 H 3.0039063 A 0.19501949,0.19501949 0 0 0 3.1992188,3.5410156 V 0.69140625 A 0.19501949,0.19501949 0 0 0 3.0039063,0.49804688 Z"
           id="path3222" />
      </g>
    </g>
    <path
       style="fill:none;stroke:#af9dd9;stroke-width:0.568;stroke-linecap:square;stroke-linejoin:miter;stroke-dasharray:none"
       id="path3337"
       transform="scale(1,-1)"
       d="m 8.081064,-4.1913075 a 3.345361,3.345361 0 0 1 -1.6726806,2.8971676 3.345361,3.345361 0 0 1 -3.345361,-1e-7 3.345361,3.345361 0 0 1 -1.6726804,-2.8971675"
       sodipodi:type="arc"
       sodipodi:arc-type="arc"
       sodipodi:start="0"
       sodipodi:end="3.1415927"
       sodipodi:ry="3.345361"
       sodipodi:rx="3.345361"
       sodipodi:cy="-4.1913075"
       sodipodi:cx="4.735703"
       sodipodi:open="true" />
    <path
       sodipodi:type="star"
       style="fill:#af9dd9;fill-opacity:1;stroke:#af9dd9;stroke-width:0.532;stroke-linecap:square;stroke-linejoin:miter;stroke-dasharray:none"
       id="path6667"
       inkscape:flatsided="true"
       sodipodi:sides="3"
       sodipodi:cx="1.209675"
       sodipodi:cy="3.8514938"
       sodipodi:r1="0.69047189"
       sodipodi:r2="0.34523594"
       sodipodi:arg1="-2.6179939"
       sodipodi:arg2="-1.5707963"
       inkscape:rounded="-3.469447e-18"
       inkscape:randomized="0"
       d="m 0.61170875,3.5062579 1.19593235,0 -0.5979661,1.0357078 z"
       inkscape:transform-center-y="0.21012655"
       transform="matrix(1.217294,0,0,1.217294,-0.08218818,-0.07683897)" />
  </g>
</svg>
