<?xml version="1.0" encoding="UTF-8" standalone="no"?>
<!-- Created with Inkscape (http://www.inkscape.org/) -->

<svg
   width="32"
   height="31.999998"
   viewBox="0 0 8.4666664 8.4666661"
   version="1.1"
   id="svg5"
   inkscape:version="1.2.2 (732a01da63, 2022-12-09)"
   sodipodi:docname="sequence.svg"
   inkscape:export-filename="..\sequence.svg"
   inkscape:export-xdpi="96"
   inkscape:export-ydpi="96"
   xmlns:inkscape="http://www.inkscape.org/namespaces/inkscape"
   xmlns:sodipodi="http://sodipodi.sourceforge.net/DTD/sodipodi-0.dtd"
   xmlns="http://www.w3.org/2000/svg"
   xmlns:svg="http://www.w3.org/2000/svg">
  <sodipodi:namedview
     id="namedview7"
     pagecolor="#ffffff"
     bordercolor="#000000"
     borderopacity="0.25"
     inkscape:showpageshadow="2"
     inkscape:pageopacity="0.0"
     inkscape:pagecheckerboard="0"
     inkscape:deskcolor="#d1d1d1"
     inkscape:document-units="mm"
     showgrid="false"
     inkscape:zoom="9.5144354"
     inkscape:cx="15.975725"
     inkscape:cy="27.69476"
     inkscape:window-width="1680"
     inkscape:window-height="988"
     inkscape:window-x="-8"
     inkscape:window-y="-8"
     inkscape:window-maximized="1"
     inkscape:current-layer="layer1" />
  <defs
     id="defs2" />
  <g
     inkscape:label="Layer 1"
     inkscape:groupmode="layer"
     id="layer1">
    <g
       aria-label="&amp;&amp;"
       id="text236"
       style="font-size:2.84615px;-inkscape-font-specification:'sans-serif, Normal';fill:#af9dd9;stroke:#af9dd9;stroke-width:0;stroke-linecap:round;stroke-linejoin:round;stroke-dasharray:none"
       transform="matrix(1.9997666,0,0,2.0003294,5.360648e-4,2.1435345e-4)">
      <g
         id="path3595"
         style="stroke-width:0;stroke-dasharray:none">
        <path
           style="color:#000000;-inkscape-font-specification:'sans-serif, Normal';stroke:none;stroke-width:0;stroke-linecap:butt;stroke-linejoin:miter;stroke-dasharray:none"
           d="m 0.82593713,1.0707066 q 0.22769197,0 0.35861487,0.1166921 0.1337691,0.113846 0.1337691,0.321615 0,0.1793074 -0.1166922,0.304538 -0.113846,0.1252306 -0.29030728,0.227692 L 1.4606286,2.5706276 q 0.074,-0.088231 0.1195383,-0.2020766 0.048385,-0.1166922 0.079692,-0.2504612 H 1.9131664 Q 1.867628,2.3030895 1.7993204,2.4596278 1.7310128,2.6133199 1.6228591,2.730012 L 2.038397,3.1341653 H 1.6997052 L 1.4520901,2.8950887 q -0.133769,0.1195383 -0.2988457,0.1935382 -0.16507673,0.074 -0.40130717,0.074 -0.29599959,0 -0.46961474,-0.1451537 -0.170769,-0.1451536 -0.170769,-0.4126917 0,-0.2163074 0.11669215,-0.3500764 Q 0.34778394,2.1209359 0.54986058,2.0070899 0.45878379,1.9046285 0.37909159,1.7879364 0.30224554,1.6712442 0.30224554,1.514706 q 0,-0.207769 0.13946135,-0.3244611 0.13946134,-0.1195383 0.38423024,-0.1195383 z m -0.008538,0.2049228 q -0.1195383,0 -0.19638435,0.062615 -0.0739999,0.062615 -0.0739999,0.1736151 0,0.1024614 0.0540768,0.1906921 0.0540768,0.085384 0.15653825,0.190692 Q 0.92555277,1.7964746 0.99670652,1.71109 1.0707064,1.625706 1.0707064,1.5090134 q 0,-0.1024614 -0.068308,-0.1679229 -0.0683076,-0.065461 -0.18499927,-0.065461 z m -0.1166926,0.8879988 q -0.1536921,0.091077 -0.24192274,0.1849997 -0.0853845,0.093923 -0.0853845,0.2476151 0,0.1565382 0.10530754,0.2504611 0.10530755,0.093923 0.28176885,0.093923 0.18215359,0 0.31023032,-0.059769 0.1309229,-0.059769 0.2219997,-0.1423075 z"
           id="path3602" />
        <path
           style="color:#000000;-inkscape-font-specification:'sans-serif, Normal';stroke:none;stroke-width:0;stroke-linecap:butt;stroke-linejoin:miter;stroke-dasharray:none"
           d="m 0.82617188,1.0253906 c -0.17050468,0 -0.31121166,0.042702 -0.4140625,0.1308594 C 0.3090544,1.24248 0.2578125,1.367044 0.2578125,1.515625 c 0,0.1117223 0.0276703,0.211361 0.0839844,0.296875 C 0.38695077,1.8786182 0.43571767,1.9405087 0.48632813,2 0.37109969,2.0698095 0.2688574,2.142309 0.1953125,2.2246094 a 0.0450045,0.0450045 0 0 0 -0.001953,0 c -0.0856932,0.098234 -0.12695312,0.2285625 -0.12695312,0.3808594 0,0.187933 0.06325901,0.3416608 0.1875,0.4472656 0.1253981,0.104841 0.29335825,0.1542968 0.49804687,0.1542969 0.1621856,0 0.30255945,-0.025514 0.41992185,-0.078125 0.1006228,-0.045107 0.1895172,-0.1080735 0.2734375,-0.1777344 l 0.2226562,0.2148437 a 0.0450045,0.0450045 0 0 0 0.03125,0.013672 h 0.3398438 a 0.0450045,0.0450045 0 0 0 0.03125,-0.078125 L 1.6796875,2.7226563 C 1.7422153,2.6488309 1.7986359,2.5712334 1.8398437,2.4785156 1.886515,2.3715607 1.9261283,2.2544496 1.9570312,2.1289063 A 0.0450045,0.0450045 0 0 0 1.9140625,2.0722656 H 1.6601562 a 0.0450045,0.0450045 0 0 0 -0.044922,0.035156 c -0.020361,0.086998 -0.04493,0.168794 -0.076172,0.2441409 C 1.5166134,2.4076853 1.4842372,2.4542399 1.4511719,2.5 L 0.97851563,2.0449219 C 1.0762036,1.9830492 1.1666687,1.9182269 1.234375,1.84375 1.3194723,1.7524261 1.3632813,1.6390657 1.3632812,1.5097656 c 0,-0.1471927 -0.050271,-0.2708701 -0.1484375,-0.3554687 -4.389e-4,-3.912e-4 -0.00151,3.894e-4 -0.00195,0 C 1.1160579,1.068675 0.98493186,1.0253906 0.82617188,1.0253906 Z m 0,0.089844 c 0.144107,0 0.25051612,0.036296 0.32812502,0.1054687 a 0.0450045,0.0450045 0 0 0 0.00195,0 c 0.07889,0.06714 0.1171875,0.1602075 0.1171875,0.2890625 0,0.1097763 -0.034977,0.1977875 -0.1054688,0.2734375 -0.072222,0.079444 -0.1649066,0.1523299 -0.27929682,0.21875 a 0.0450045,0.0450045 0 0 0 -0.007813,0.072266 L 1.4296875,2.6035156 a 0.0450045,0.0450045 0 0 0 0.064453,-0.00391 C 1.5463235,2.5373876 1.5891795,2.4660438 1.6210936,2.386715 v -0.00195 c 0.028415,-0.068766 0.05062,-0.1437799 0.070312,-0.2207031 h 0.1582032 c -0.026817,0.097769 -0.054948,0.1928986 -0.091797,0.2773438 -0.043675,0.098269 -0.099351,0.1837777 -0.1679688,0.2578125 a 0.0450045,0.0450045 0 0 0 0.00195,0.0625 l 0.3378906,0.328125 H 1.71875 L 1.4824219,2.8632813 A 0.0450045,0.0450045 0 0 0 1.421875,2.8613281 C 1.3361134,2.9379662 1.2407036,2.9993856 1.1347656,3.046875 1.0320259,3.0929308 0.90474113,3.1171875 0.75195312,3.1171875 0.56197603,3.1171875 0.41663541,3.0711189 0.31054688,2.9824219 0.20709609,2.8944887 0.15625,2.7742528 0.15625,2.6054688 0.15625,2.4693561 0.19182262,2.365281 0.26171875,2.2851563 0.33724232,2.2006417 0.44080879,2.1209352 0.57226562,2.046875 A 0.0450045,0.0450045 0 0 0 0.58398442,1.976563 C 0.5249076,1.9101011 0.46784763,1.8394554 0.41601563,1.7636719 v -0.00195 C 0.37053834,1.6919912 0.34765625,1.6119102 0.34765625,1.515625 c 0,-0.128444 0.0401536,-0.221656 0.12304688,-0.2910156 0.0830974,-0.071226 0.19961522,-0.109375 0.35546875,-0.1093748 z m -0.007813,0.1152343 c -0.0875492,0 -0.16647385,0.023305 -0.22656251,0.072266 a 0.0450045,0.0450045 0 0 0 0,0.00195 c -0.0593429,0.050213 -0.0898438,0.1230313 -0.0898438,0.2070312 0,0.076224 0.0204401,0.1494064 0.0605469,0.2148438 0.0384506,0.060711 0.0923221,0.1255395 0.16210937,0.1972656 a 0.0450045,0.0450045 0 0 0 0.0546875,0.00781 C 0.89382388,1.8656421 0.97802107,1.8041092 1.03125,1.7402344 1.087228,1.6756444 1.115234,1.5970728 1.115234,1.5097656 1.115234,1.4314576 1.087209,1.3603497 1.033203,1.3085937 0.9784226,1.2560957 0.90456825,1.2304687 0.81835888,1.2304689 Z m 0,0.089844 c 0.0693798,1e-7 0.11604747,0.017951 0.15234375,0.052734 0.0370708,0.035526 0.0546875,0.078411 0.0546875,0.1367187 0,0.068283 -0.019812,0.1226196 -0.0625,0.171875 -0.0361811,0.043417 -0.11182039,0.094674 -0.19921876,0.1484375 -0.0504394,-0.054574 -0.0970972,-0.106521 -0.125,-0.1503906 v -0.00195 c -0.0312974,-0.051691 -0.046875,-0.1062763 -0.046875,-0.1660157 0,-0.064 0.0192702,-0.1053982 0.0585938,-0.1386718 0.0423727,-0.034526 0.0961337,-0.052734 0.16796876,-0.052734 z M 0.67773437,2.125 C 0.57268568,2.1872512 0.48855936,2.2515312 0.42578125,2.3183594 0.36064015,2.3900146 0.328125,2.4849085 0.328125,2.5957031 c 0,0.1144496 0.0416208,0.2142751 0.12109375,0.2851563 0.079523,0.070926 0.18492226,0.1054687 0.31054687,0.1054687 0.12635747,0 0.23728553,-0.02115 0.33007808,-0.064453 0.090815,-0.041459 0.1677588,-0.09179 0.2324219,-0.1503906 a 0.0450045,0.0450045 0 0 0 0.00195,-0.064453 L 0.73242187,2.1308594 A 0.0450045,0.0450045 0 0 0 0.67773437,2.125 Z m 0.0214844,0.097656 0.52148433,0.5097656 c -0.049727,0.0392 -0.1008196,0.076767 -0.1679687,0.1074219 a 0.0450045,0.0450045 0 0 0 -0.00195,0 c -0.0779762,0.036389 -0.17450181,0.056641 -0.29101556,0.056641 -0.10965688,0 -0.19106621,-0.02968 -0.25195312,-0.083984 -0.060937,-0.054349 -0.0898438,-0.1225291 -0.0898438,-0.2167969 0,-0.094128 0.025514,-0.1632216 0.0742188,-0.2167968 0.048832,-0.051982 0.12254655,-0.1035229 0.20703125,-0.15625 z"
           id="path3604" />
      </g>
      <g
         id="path3597"
         style="stroke-width:0;stroke-dasharray:none">
        <path
           style="color:#000000;-inkscape-font-specification:'sans-serif, Normal';stroke:none;stroke-width:0;stroke-linecap:butt;stroke-linejoin:miter;stroke-dasharray:none"
           d="m 2.90932,1.0707066 q 0.227692,0 0.3586149,0.1166921 0.133769,0.113846 0.133769,0.321615 0,0.1793074 -0.1166921,0.304538 -0.113846,0.1252306 -0.2903073,0.227692 l 0.5493069,0.5293839 q 0.074,-0.088231 0.1195383,-0.2020766 0.048385,-0.1166922 0.079692,-0.2504612 H 3.9965492 Q 3.9510108,2.3030895 3.8827032,2.4596278 3.8143956,2.6133199 3.7062419,2.730012 L 4.1217798,3.1341653 H 3.783088 L 3.535473,2.8950887 Q 3.4017039,3.014627 3.2366272,3.0886269 q -0.1650767,0.074 -0.4013071,0.074 -0.2959996,0 -0.4696148,-0.1451537 -0.170769,-0.1451536 -0.170769,-0.4126917 0,-0.2163074 0.1166922,-0.3500764 Q 2.4311668,2.1209359 2.6332434,2.0070899 2.5421666,1.9046285 2.4624744,1.7879364 2.3856284,1.6712442 2.3856284,1.514706 q 0,-0.207769 0.1394613,-0.3244611 Q 2.6645511,1.0707066 2.90932,1.0707066 Z M 2.90078,1.2756294 q -0.1195383,0 -0.1963843,0.062615 -0.074,0.062615 -0.074,0.1736151 0,0.1024614 0.054077,0.1906921 0.054077,0.085384 0.1565383,0.190692 0.1679228,-0.096769 0.2390766,-0.1821536 0.074,-0.085384 0.074,-0.2020766 0,-0.1024614 -0.068308,-0.1679229 Q 3.0174716,1.2756295 2.90078,1.2756294 Z M 2.7840894,2.1636282 q -0.1536921,0.091077 -0.2419228,0.1849997 -0.085384,0.093923 -0.085384,0.2476151 0,0.1565382 0.1053076,0.2504611 0.1053075,0.093923 0.2817688,0.093923 0.1821536,0 0.3102304,-0.059769 0.1309229,-0.059769 0.2219997,-0.1423075 z"
           id="path3608" />
        <path
           style="color:#000000;-inkscape-font-specification:'sans-serif, Normal';stroke:none;stroke-width:0;stroke-linecap:butt;stroke-linejoin:miter;stroke-dasharray:none"
           d="m 2.9101563,1.0253906 c -0.1705047,0 -0.3112117,0.042702 -0.4140625,0.1308594 -0.103055,0.08623 -0.15625,0.210794 -0.15625,0.359375 0,0.1117223 0.029623,0.211361 0.085937,0.296875 C 2.4709348,1.878618 2.5197018,1.9405087 2.570312,2 2.455003,2.069839 2.350926,2.1422667 2.2773433,2.2246094 2.1916503,2.3228434 2.1503901,2.4531719 2.1503901,2.6054688 c 0,0.187933 0.061306,0.3416608 0.1855469,0.4472656 0.1253981,0.104841 0.2953114,0.1542969 0.5,0.1542969 0.1621856,0 0.3025595,-0.025514 0.4199219,-0.078125 C 3.3564817,3.0837993 3.445376,3.0208328 3.5292964,2.9511719 l 0.2226562,0.2148437 a 0.0450045,0.0450045 0 0 0 0.03125,0.013672 h 0.3378906 a 0.0450045,0.0450045 0 0 0 0.03125,-0.078125 L 3.7636719,2.7226563 C 3.8259335,2.6490043 3.8827513,2.5709384 3.9238281,2.4785156 3.9704993,2.3715607 4.0101126,2.2544496 4.0410156,2.1289063 A 0.0450045,0.0450045 0 0 0 3.9960938,2.0722656 H 3.7441406 a 0.0450045,0.0450045 0 0 0 -0.044922,0.035156 c -0.020361,0.086998 -0.046883,0.1687937 -0.078125,0.2441406 -0.022201,0.055504 -0.053353,0.1011197 -0.085937,0.1464844 L 3.0625,2.0449219 C 3.160188,1.9830492 3.2506531,1.9182269 3.3183594,1.84375 3.4034566,1.7524261 3.4472656,1.6390657 3.4472656,1.5097656 c 0,-0.1471927 -0.050271,-0.2708701 -0.1484375,-0.3554687 -4.389e-4,-3.912e-4 -0.00151,3.894e-4 -0.00195,0 C 3.2000423,1.068675 3.0689163,1.0253906 2.9101563,1.0253906 Z m 0,0.089844 c 0.144107,0 0.2505161,0.036296 0.328125,0.1054687 0.07889,0.06714 0.1191406,0.1602075 0.1191406,0.2890625 0,0.1097763 -0.034977,0.1977875 -0.1054688,0.2734375 -0.072222,0.079444 -0.1649066,0.1523299 -0.2792968,0.21875 a 0.0450045,0.0450045 0 0 0 -0.00977,0.072266 l 0.5507813,0.5292968 a 0.0450045,0.0450045 0 0 0 0.064453,-0.00391 c 0.052182,-0.062218 0.095039,-0.1335618 0.1269531,-0.2128906 v -0.00195 c 0.028415,-0.068766 0.05062,-0.1437799 0.070312,-0.2207031 h 0.1582032 c -0.026817,0.097769 -0.054948,0.1928986 -0.091797,0.2773438 -0.043675,0.098269 -0.099351,0.1837777 -0.1679688,0.2578125 a 0.0450045,0.0450045 0 0 0 0.00195,0.0625 l 0.3359374,0.328125 H 3.8007813 L 3.5664063,2.8632813 a 0.0450045,0.0450045 0 0 0 -0.060547,-0.00195 C 3.4200977,2.9379662 3.324688,2.9993856 3.21875,3.046875 3.1160103,3.0929308 2.9887255,3.1171875 2.8359375,3.1171875 2.6459604,3.1171875 2.5006198,3.0711189 2.3945313,2.9824219 2.2910805,2.8944887 2.2402344,2.7742528 2.2402344,2.6054688 2.2402344,2.4693561 2.275807,2.365281 2.3457031,2.2851563 2.4212267,2.2006417 2.5247932,2.1209352 2.65625,2.046875 A 0.0450045,0.0450045 0 0 0 2.66602,1.976563 C 2.6069418,1.9101045 2.5518298,1.8394511 2.5,1.7636719 v -0.00195 C 2.45452,1.6919898 2.4296875,1.6119131 2.4296875,1.515625 c 0,-0.1284441 0.042107,-0.221656 0.125,-0.2910156 0.083098,-0.071226 0.1996152,-0.109375 0.3554688,-0.1093748 z m -0.00977,0.1152343 c -0.087549,0 -0.1645207,0.023305 -0.2246093,0.072266 a 0.0450045,0.0450045 0 0 0 0,0.00195 c -0.059343,0.050213 -0.089844,0.1230313 -0.089844,0.2070312 0,0.076224 0.02044,0.1494064 0.060547,0.2148438 0.038451,0.060711 0.092322,0.1255396 0.1621094,0.1972656 a 0.0450045,0.0450045 0 0 0 0.054687,0.00781 c 0.113964,-0.065674 0.1967373,-0.1278591 0.25,-0.1914062 0.055978,-0.06459 0.085937,-0.1431616 0.085937,-0.2304688 0,-0.078308 -0.028025,-0.1494159 -0.082031,-0.2011719 -0.054781,-0.052497 -0.130588,-0.078125 -0.2167969,-0.078125 z m 0,0.089844 c 0.06938,1e-7 0.1180003,0.017951 0.1542969,0.052734 0.037071,0.035526 0.054687,0.078411 0.054687,0.1367187 0,0.068283 -0.019812,0.1226196 -0.0625,0.171875 a 0.0450045,0.0450045 0 0 0 -0.00195,0 c -0.036151,0.043381 -0.1099838,0.094726 -0.1972656,0.1484375 -0.050439,-0.054574 -0.097097,-0.1065209 -0.125,-0.1503906 v -0.00195 C 2.6913587,1.626043 2.6757812,1.5714581 2.6757813,1.5117187 c 0,-0.064 0.01927,-0.1053982 0.058594,-0.1386718 0.042163,-0.033814 0.094941,-0.052734 0.1660156,-0.052734 z M 2.7617188,2.125 c -0.1050487,0.062251 -0.189175,0.1265312 -0.2519532,0.1933594 -0.065141,0.071655 -0.097656,0.1665492 -0.097656,0.2773437 0,0.1144496 0.039668,0.2142751 0.1191406,0.2851563 0.079523,0.070926 0.1868754,0.1054687 0.3125,0.1054687 0.1256373,0 0.235665,-0.021653 0.328125,-0.064453 0.090815,-0.041459 0.1697119,-0.09179 0.234375,-0.1503906 a 0.0450045,0.0450045 0 0 0 0.00195,-0.064453 L 2.8164063,2.1308594 A 0.0450045,0.0450045 0 0 0 2.7617188,2.125 Z m 0.019531,0.097656 0.5234375,0.5078125 c -0.049951,0.039528 -0.1023107,0.078509 -0.1699219,0.109375 -0.077976,0.036389 -0.1745018,0.056641 -0.2910156,0.056641 -0.1096569,0 -0.1910663,-0.02968 -0.2519531,-0.083984 -0.060937,-0.054349 -0.089844,-0.1225291 -0.089844,-0.2167969 0,-0.094128 0.025514,-0.1632216 0.074219,-0.2167968 0.048751,-0.051681 0.1211008,-0.1038395 0.2050781,-0.1562508 z"
           id="path3610" />
      </g>
    </g>
  </g>
</svg>
