<?xml version="1.0" encoding="UTF-8" standalone="no"?>
<!-- Created with Inkscape (http://www.inkscape.org/) -->

<svg
   width="31.999998"
   height="31.999998"
   viewBox="0 0 8.466666 8.4666661"
   version="1.1"
   id="svg5"
   inkscape:version="1.2.2 (732a01da63, 2022-12-09)"
   sodipodi:docname="wait_for_time.svg"
   inkscape:export-filename="..\wait_for_time.svg"
   inkscape:export-xdpi="96"
   inkscape:export-ydpi="96"
   xmlns:inkscape="http://www.inkscape.org/namespaces/inkscape"
   xmlns:sodipodi="http://sodipodi.sourceforge.net/DTD/sodipodi-0.dtd"
   xmlns="http://www.w3.org/2000/svg"
   xmlns:svg="http://www.w3.org/2000/svg">
  <sodipodi:namedview
     id="namedview7"
     pagecolor="#ffffff"
     bordercolor="#000000"
     borderopacity="0.25"
     inkscape:showpageshadow="2"
     inkscape:pageopacity="0.0"
     inkscape:pagecheckerboard="0"
     inkscape:deskcolor="#d1d1d1"
     inkscape:document-units="mm"
     showgrid="false"
     inkscape:zoom="19.02887"
     inkscape:cx="15.187449"
     inkscape:cy="17.000484"
     inkscape:window-width="1680"
     inkscape:window-height="988"
     inkscape:window-x="-8"
     inkscape:window-y="-8"
     inkscape:window-maximized="1"
     inkscape:current-layer="layer1" />
  <defs
     id="defs2" />
  <g
     inkscape:label="Layer 1"
     inkscape:groupmode="layer"
     id="layer1">
    <path
       style="color:#000000;fill:#af9dd9;stroke-linecap:square;stroke-dasharray:1.904;-inkscape-stroke:none"
       d="m -4.7949219,-7.7285156 -0.4570312,0.1308594 -0.033203,0.00781 -0.1621094,0.056641 -0.1582031,0.0625 -0.1542969,0.070312 -0.1503906,0.076172 -0.1464844,0.083984 -0.1425781,0.091797 -0.1367188,0.095703 -0.1308594,0.1054688 -0.1269531,0.109375 -0.1210937,0.1152344 -0.1171875,0.1210937 -0.109375,0.1269531 -0.089844,0.1132813 -0.2929687,0.375 0.7480468,0.5878906 0.2929688,-0.3730469 0.076172,-0.097656 0.080078,-0.091797 0.083984,-0.087891 0.089844,-0.083984 0.091797,-0.080078 0.095703,-0.076172 0.099609,-0.070312 0.1035156,-0.066406 0.1054688,-0.060547 0.109375,-0.056641 0.1132812,-0.050781 0.1152344,-0.044922 0.1171875,-0.041016 0.00977,-0.00195 0.4570313,-0.1308594 z m 1.2460938,0.023437 -0.3046875,0.9023437 0.4511718,0.1523438 0.03125,0.011719 0.1152344,0.044922 0.1113281,0.050781 0.109375,0.056641 0.1074219,0.060547 0.1015625,0.066406 0.099609,0.070312 0.097656,0.076172 0.091797,0.080078 0.087891,0.083984 0.083984,0.087891 0.080078,0.091797 0.076172,0.095703 0.058594,0.083984 0.2773437,0.3886719 0.7753907,-0.5527344 -0.2753907,-0.3867188 -0.074219,-0.1035156 -0.1035156,-0.1308594 -0.109375,-0.1269531 -0.1152344,-0.1210937 -0.1210938,-0.1152344 -0.1269531,-0.109375 -0.1328125,-0.1054688 -0.1367188,-0.095703 -0.140625,-0.091797 -0.1464843,-0.083984 -0.1503907,-0.076172 -0.15625,-0.070312 -0.1582031,-0.0625 -0.052734,-0.019531 z m -4.1757813,2.921875 -0.013672,0.4765625 v 0.052734 l 0.00391,0.1796875 0.013672,0.1777343 0.021484,0.1757813 0.03125,0.171875 0.039063,0.1679687 0.046875,0.1660156 0.054687,0.1621094 0.0625,0.1601563 0.070312,0.1542968 0.078125,0.1503907 0.083984,0.1464843 0.089844,0.1425782 0.048828,0.068359 0.2753906,0.3867188 0.7773438,-0.5507813 -0.2773438,-0.3886718 -0.035156,-0.048828 -0.064453,-0.1035156 -0.0625,-0.1074219 -0.054687,-0.109375 -0.052734,-0.1113281 -0.044922,-0.1152344 -0.039063,-0.1191406 -0.035156,-0.1191406 -0.027344,-0.1230469 -0.023437,-0.125 -0.015625,-0.1269531 -0.00977,-0.1289062 -0.00391,-0.1328125 0.00195,-0.029297 0.011719,-0.4746094 z m 6.03125,0.042969 -0.011719,0.4746094 -0.00391,0.1445313 -0.00977,0.1289062 -0.015625,0.1269531 -0.021484,0.125 -0.029297,0.1230469 -0.033203,0.1191406 -0.041016,0.1191406 -0.044922,0.1152344 -0.050781,0.1113281 -0.056641,0.109375 -0.060547,0.1074219 -0.066406,0.1035156 -0.058594,0.083984 -0.2773438,0.3867188 0.7773438,0.5527344 0.2753906,-0.3886719 0.072266,-0.1015625 0.091797,-0.1425782 0.083984,-0.1464843 0.076172,-0.1503907 0.070312,-0.1542968 0.0625,-0.1601563 0.0546875,-0.1621094 0.046875,-0.1660156 0.0390625,-0.1679687 0.03125,-0.171875 0.0214844,-0.1757813 0.0136719,-0.1777343 0.005859,-0.1660157 0.0117188,-0.4765625 z M -5.5,-1.9941406 -5.8046875,-1.09375 l 0.4511719,0.15234375 0.068359,0.0234375 0.1660156,0.0488281 0.1699219,0.0390625 0.171875,0.0292969 0.1757812,0.0234375 0.1757813,0.0136719 0.1796875,0.003906 0.1796875,-0.003906 0.1777343,-0.0136719 0.1738281,-0.0234375 0.171875,-0.0292969 0.1699219,-0.0390625 0.1660156,-0.0488281 0.03125,-0.009766 0.4492188,-0.15234375 -0.3046875,-0.9023438 -0.4511719,0.1523438 -0.00781,0.00391 -0.1191406,0.033203 -0.1230469,0.029297 -0.125,0.021484 -0.1269531,0.017578 -0.1308594,0.00977 -0.1308593,0.00195 -0.1308594,-0.00195 -0.1289063,-0.00977 -0.1269531,-0.017578 -0.125,-0.021484 -0.1230469,-0.029297 -0.1210937,-0.033203 -0.046875,-0.015625 z"
       id="path234"
       transform="scale(-1)" />
  </g>
</svg>
